<?xml version="1.0" encoding="UTF-8" standalone="no"?>
<!DOCTYPE svg PUBLIC "-//W3C//DTD SVG 1.1//EN"
 "http://www.w3.org/Graphics/SVG/1.1/DTD/svg11.dtd">
<!-- Generated by graphviz version 2.26.3 (20100126.1600)
 -->
<!-- Title: G Pages: 1 -->
<svg width="976pt" height="260pt"
 viewBox="0.00 0.00 976.00 260.00" xmlns="http://www.w3.org/2000/svg" xmlns:xlink="http://www.w3.org/1999/xlink">
<g id="graph1" class="graph" transform="scale(1 1) rotate(0) translate(4 256)">
<title>G</title>
<polygon fill="white" stroke="white" points="-4,5 -4,-256 973,-256 973,5 -4,5"/>
<!-- output -->
<g id="node1" class="node"><title>output</title>
<ellipse fill="none" stroke="black" cx="111" cy="-162" rx="43.7776" ry="18"/>
<text text-anchor="middle" x="111" y="-157.9" font-family="Times Roman,serif" font-size="14.00">output</text>
</g>
<!-- template -->
<g id="node3" class="node"><title>template</title>
<ellipse fill="none" stroke="black" cx="54" cy="-90" rx="54.2008" ry="18"/>
<text text-anchor="middle" x="54" y="-85.9" font-family="Times Roman,serif" font-size="14.00">template</text>
</g>
<!-- output&#45;&gt;template -->
<g id="edge2" class="edge"><title>output&#45;&gt;template</title>
<path fill="none" stroke="black" d="M97.2019,-144.571C90.3214,-135.88 81.8667,-125.2 74.2665,-115.6"/>
<polygon fill="black" stroke="black" points="67.8686,-107.518 77.6039,-112.566 70.9721,-111.438 74.0757,-115.359 74.0757,-115.359 74.0757,-115.359 70.9721,-111.438 70.5475,-118.152 67.8686,-107.518 67.8686,-107.518"/>
</g>
<!-- process -->
<g id="node4" class="node"><title>process</title>
<ellipse fill="none" stroke="black" cx="333" cy="-162" rx="46.7546" ry="18"/>
<text text-anchor="middle" x="333" y="-157.9" font-family="Times Roman,serif" font-size="14.00">process</text>
</g>
<!-- register&#45;relation! -->
<g id="node6" class="node"><title>register&#45;relation!</title>
<ellipse fill="none" stroke="black" cx="591" cy="-90" rx="93.1142" ry="18"/>
<text text-anchor="middle" x="591" y="-85.9" font-family="Times Roman,serif" font-size="14.00">register&#45;relation!</text>
</g>
<!-- process&#45;&gt;register&#45;relation! -->
<g id="edge4" class="edge"><title>process&#45;&gt;register&#45;relation!</title>
<path fill="none" stroke="black" d="M371.069,-151.376C412.376,-139.848 478.994,-121.257 528.101,-107.553"/>
<polygon fill="black" stroke="black" points="537.987,-104.794 529.565,-111.817 533.171,-106.138 528.355,-107.482 528.355,-107.482 528.355,-107.482 533.171,-106.138 527.145,-103.148 537.987,-104.794 537.987,-104.794"/>
</g>
<!-- register&#45;current! -->
<g id="node8" class="node"><title>register&#45;current!</title>
<ellipse fill="none" stroke="black" cx="389" cy="-90" rx="91.0296" ry="18"/>
<text text-anchor="middle" x="389" y="-85.9" font-family="Times Roman,serif" font-size="14.00">register&#45;current!</text>
</g>
<!-- process&#45;&gt;register&#45;current! -->
<g id="edge6" class="edge"><title>process&#45;&gt;register&#45;current!</title>
<path fill="none" stroke="black" d="M346.556,-144.571C353.216,-136.008 361.376,-125.516 368.757,-116.027"/>
<polygon fill="black" stroke="black" points="374.984,-108.021 372.397,-118.677 371.914,-111.967 368.845,-115.914 368.845,-115.914 368.845,-115.914 371.914,-111.967 365.292,-113.151 374.984,-108.021 374.984,-108.021"/>
</g>
<!-- triggered -->
<g id="node10" class="node"><title>triggered</title>
<ellipse fill="none" stroke="black" cx="261" cy="-18" rx="55.0898" ry="18"/>
<text text-anchor="middle" x="261" y="-13.9" font-family="Times Roman,serif" font-size="14.00">triggered</text>
</g>
<!-- process&#45;&gt;triggered -->
<g id="edge8" class="edge"><title>process&#45;&gt;triggered</title>
<path fill="none" stroke="black" d="M309.579,-146.165C299.012,-135.982 287.55,-122.065 280,-108 269.519,-88.4753 262.291,-64.4225 259.14,-46.0959"/>
<polygon fill="black" stroke="black" points="257.762,-36.0447 263.579,-45.3408 258.441,-40.9984 259.121,-45.952 259.121,-45.952 259.121,-45.952 258.441,-40.9984 254.662,-46.5633 257.762,-36.0447 257.762,-36.0447"/>
</g>
<!-- process&#45;&gt;triggered -->
<g id="edge10" class="edge"><title>process&#45;&gt;triggered</title>
<path fill="none" stroke="black" d="M323.603,-144.273C315.637,-134.294 305.092,-121.212 298,-108 287.356,-88.1712 280.067,-63.6721 274.205,-45.2437"/>
<polygon fill="black" stroke="black" points="271.083,-35.6985 278.469,-43.8041 272.637,-40.4508 274.192,-45.203 274.192,-45.203 274.192,-45.203 272.637,-40.4508 269.915,-46.602 271.083,-35.6985 271.083,-35.6985"/>
</g>
<!-- trigger? -->
<g id="node13" class="node"><title>trigger?</title>
<ellipse fill="none" stroke="black" cx="175" cy="-90" rx="48.8383" ry="18"/>
<text text-anchor="middle" x="175" y="-85.9" font-family="Times Roman,serif" font-size="14.00">trigger?</text>
</g>
<!-- process&#45;&gt;trigger? -->
<g id="edge12" class="edge"><title>process&#45;&gt;trigger?</title>
<path fill="none" stroke="black" d="M302.536,-148.118C277.669,-136.786 242.327,-120.681 215.151,-108.297"/>
<polygon fill="black" stroke="black" points="205.91,-104.085 216.875,-104.137 210.459,-106.159 215.009,-108.232 215.009,-108.232 215.009,-108.232 210.459,-106.159 213.143,-112.327 205.91,-104.085 205.91,-104.085"/>
</g>
<!-- relations -->
<g id="node19" class="node"><title>relations</title>
<ellipse fill="none" stroke="black" cx="712" cy="-18" rx="53.0059" ry="18"/>
<text text-anchor="middle" x="712" y="-13.9" font-family="Times Roman,serif" font-size="14.00">relations</text>
</g>
<!-- register&#45;relation!&#45;&gt;relations -->
<g id="edge30" class="edge"><title>register&#45;relation!&#45;&gt;relations</title>
<path fill="none" stroke="black" d="M619.983,-72.7542C636.891,-62.6929 658.357,-49.92 676.302,-39.242"/>
<polygon fill="black" stroke="black" points="685.322,-33.8745 679.029,-42.8553 681.025,-36.4313 676.728,-38.9881 676.728,-38.9881 676.728,-38.9881 681.025,-36.4313 674.427,-35.121 685.322,-33.8745 685.322,-33.8745"/>
</g>
<!-- current -->
<g id="node27" class="node"><title>current</title>
<ellipse fill="none" stroke="black" cx="490" cy="-18" rx="46.7546" ry="18"/>
<text text-anchor="middle" x="490" y="-13.9" font-family="Times Roman,serif" font-size="14.00">current</text>
</g>
<!-- register&#45;relation!&#45;&gt;current -->
<g id="edge28" class="edge"><title>register&#45;relation!&#45;&gt;current</title>
<path fill="none" stroke="black" d="M566.551,-72.5708C552.788,-62.7599 535.471,-50.4151 520.79,-39.9494"/>
<polygon fill="black" stroke="black" points="512.497,-34.0378 523.252,-36.1784 516.569,-36.9402 520.64,-39.8426 520.64,-39.8426 520.64,-39.8426 516.569,-36.9402 518.028,-43.5069 512.497,-34.0378 512.497,-34.0378"/>
</g>
<!-- register&#45;current!&#45;&gt;triggered -->
<g id="edge34" class="edge"><title>register&#45;current!&#45;&gt;triggered</title>
<path fill="none" stroke="black" d="M358.666,-72.937C340.413,-62.6698 317.053,-49.5297 297.756,-38.6751"/>
<polygon fill="black" stroke="black" points="288.93,-33.7103 299.851,-34.6909 293.287,-36.1617 297.645,-38.613 297.645,-38.613 297.645,-38.613 293.287,-36.1617 295.439,-42.5351 288.93,-33.7103 288.93,-33.7103"/>
</g>
<!-- register&#45;current!&#45;&gt;current -->
<g id="edge32" class="edge"><title>register&#45;current!&#45;&gt;current</title>
<path fill="none" stroke="black" d="M413.449,-72.5708C427.212,-62.7599 444.529,-50.4151 459.21,-39.9494"/>
<polygon fill="black" stroke="black" points="467.503,-34.0378 461.972,-43.5069 463.431,-36.9402 459.36,-39.8426 459.36,-39.8426 459.36,-39.8426 463.431,-36.9402 456.748,-36.1784 467.503,-34.0378 467.503,-34.0378"/>
</g>
<!-- draw&#45;many -->
<g id="node14" class="node"><title>draw&#45;many</title>
<ellipse fill="none" stroke="black" cx="806" cy="-162" rx="66.0138" ry="18"/>
<text text-anchor="middle" x="806" y="-157.9" font-family="Times Roman,serif" font-size="14.00">draw&#45;many</text>
</g>
<!-- draw&#45;one -->
<g id="node16" class="node"><title>draw&#45;one</title>
<ellipse fill="none" stroke="black" cx="802" cy="-90" rx="57.1737" ry="18"/>
<text text-anchor="middle" x="802" y="-85.9" font-family="Times Roman,serif" font-size="14.00">draw&#45;one</text>
</g>
<!-- draw&#45;many&#45;&gt;draw&#45;one -->
<g id="edge14" class="edge"><title>draw&#45;many&#45;&gt;draw&#45;one</title>
<path fill="none" stroke="black" d="M804.991,-143.831C804.563,-136.131 804.054,-126.974 803.579,-118.417"/>
<polygon fill="black" stroke="black" points="803.023,-108.413 808.071,-118.148 803.3,-113.406 803.578,-118.398 803.578,-118.398 803.578,-118.398 803.3,-113.406 799.085,-118.648 803.023,-108.413 803.023,-108.413"/>
</g>
<!-- draw&#45;one&#45;&gt;relations -->
<g id="edge26" class="edge"><title>draw&#45;one&#45;&gt;relations</title>
<path fill="none" stroke="black" d="M780.671,-72.937C768.817,-63.4537 753.899,-51.5196 740.999,-41.1991"/>
<polygon fill="black" stroke="black" points="732.865,-34.6921 743.485,-37.4252 736.77,-37.8156 740.674,-40.9391 740.674,-40.9391 740.674,-40.9391 736.77,-37.8156 737.863,-44.453 732.865,-34.6921 732.865,-34.6921"/>
</g>
<!-- &#45;main -->
<g id="node17" class="node"><title>&#45;main</title>
<ellipse fill="none" stroke="black" cx="712" cy="-234" rx="38.9134" ry="18"/>
<text text-anchor="middle" x="712" y="-229.9" font-family="Times Roman,serif" font-size="14.00">&#45;main</text>
</g>
<!-- &#45;main&#45;&gt;output -->
<g id="edge20" class="edge"><title>&#45;main&#45;&gt;output</title>
<path fill="none" stroke="black" d="M673.949,-229.441C570.149,-217.006 281.942,-182.479 163.18,-168.251"/>
<polygon fill="black" stroke="black" points="153.237,-167.06 163.701,-163.782 158.201,-167.655 163.166,-168.25 163.166,-168.25 163.166,-168.25 158.201,-167.655 162.631,-172.718 153.237,-167.06 153.237,-167.06"/>
</g>
<!-- &#45;main&#45;&gt;process -->
<g id="edge24" class="edge"><title>&#45;main&#45;&gt;process</title>
<path fill="none" stroke="black" d="M675.66,-227.096C608.192,-214.279 463.36,-186.765 385.34,-171.943"/>
<polygon fill="black" stroke="black" points="375.249,-170.026 385.913,-167.472 380.161,-170.959 385.073,-171.893 385.073,-171.893 385.073,-171.893 380.161,-170.959 384.233,-176.313 375.249,-170.026 375.249,-170.026"/>
</g>
<!-- &#45;main&#45;&gt;draw&#45;many -->
<g id="edge18" class="edge"><title>&#45;main&#45;&gt;draw&#45;many</title>
<path fill="none" stroke="black" d="M732.397,-218.377C745.035,-208.696 761.5,-196.085 775.652,-185.245"/>
<polygon fill="black" stroke="black" points="783.671,-179.103 778.469,-188.756 779.702,-182.143 775.732,-185.184 775.732,-185.184 775.732,-185.184 779.702,-182.143 772.996,-181.611 783.671,-179.103 783.671,-179.103"/>
</g>
<!-- &#45;main&#45;&gt;relations -->
<g id="edge16" class="edge"><title>&#45;main&#45;&gt;relations</title>
<path fill="none" stroke="black" d="M712,-215.955C712,-178.394 712,-91.5541 712,-46.4103"/>
<polygon fill="black" stroke="black" points="712,-36.1451 716.5,-46.145 712,-41.1451 712,-46.1451 712,-46.1451 712,-46.1451 712,-41.1451 707.5,-46.1451 712,-36.1451 712,-36.1451"/>
</g>
<!-- graph -->
<g id="node23" class="node"><title>graph</title>
<ellipse fill="none" stroke="black" cx="929" cy="-162" rx="38.9134" ry="18"/>
<text text-anchor="middle" x="929" y="-157.9" font-family="Times Roman,serif" font-size="14.00">graph</text>
</g>
<!-- &#45;main&#45;&gt;graph -->
<g id="edge22" class="edge"><title>&#45;main&#45;&gt;graph</title>
<path fill="none" stroke="black" d="M744.873,-224.024C779.045,-213.531 834.005,-196.309 881,-180 883.719,-179.056 886.518,-178.064 889.332,-177.05"/>
<polygon fill="black" stroke="black" points="898.868,-173.559 891.024,-181.222 894.173,-175.278 889.478,-176.996 889.478,-176.996 889.478,-176.996 894.173,-175.278 887.931,-172.771 898.868,-173.559 898.868,-173.559"/>
</g>
</g>
</svg>
